<svg xmlns="http://www.w3.org/2000/svg" viewBox="0 0 37.25 51.77"><defs><style>.cls-1{fill:none;stroke:#d6d6d6;stroke-width:3.5px;}.cls-2,.cls-3{fill:#d6d6d6;}.cls-3{font-size:12px;font-family:BrandonGrotesque-Regular, Brandon Grotesque;}.cls-4{letter-spacing:-0.01em;}.cls-5{letter-spacing:0em;}</style></defs><g id="Layer_2" data-name="Layer 2"><g id="Layer_1-2" data-name="Layer 1"><path class="cls-1" d="M25,13.46A11.62,11.62,0,1,1,13.4,1.75,11.67,11.67,0,0,1,25,13.46Z"/><path class="cls-2" d="M23.27,20.17h0a2.12,2.12,0,0,1,3-.35l10.16,8.09a2.16,2.16,0,0,1,.36,3h0a2.13,2.13,0,0,1-3,.35L23.62,23.2A2.18,2.18,0,0,1,23.27,20.17Z"/><text class="cls-3" transform="translate(0 47.28)"><tspan class="cls-4">E</tspan><tspan x="7.01" y="0">xplo</tspan><tspan class="cls-5" x="26.14" y="0">r</tspan><tspan x="30.11" y="0">e</tspan></text></g></g></svg>