<svg xmlns="http://www.w3.org/2000/svg" xmlns:xlink="http://www.w3.org/1999/xlink" viewBox="0 0 35 51.27"><defs><style>.cls-1{fill:#fff;}.cls-2,.cls-3,.cls-5{fill:none;stroke:#db5342;}.cls-2{stroke-width:2.5px;}.cls-3{stroke-width:1.5px;}.cls-4{mask:url(#mask);}.cls-5{stroke-width:3px;}.cls-6{font-size:12px;fill:#db5342;font-family:BrandonGrotesque-Regular, Brandon Grotesque;}.cls-7{letter-spacing:-0.02em;}</style><mask id="mask" x="18.99" y="19.75" width="10.37" height="9.25" maskUnits="userSpaceOnUse"><g id="path-7-inside-1"><path class="cls-1" d="M21,21.25h6.39a.49.49,0,0,1,.49.5V27a.49.49,0,0,1-.49.5H21a.49.49,0,0,1-.49-.5V21.75A.49.49,0,0,1,21,21.25Z"/></g></mask></defs><g id="Layer_2" data-name="Layer 2"><g id="Layer_1-2" data-name="Layer 1"><path class="cls-2" d="M5.13,10.5V30.75a.49.49,0,0,0,.49.5H30.44a.5.5,0,0,0,.5-.5V10.5a.5.5,0,0,0-.5-.5H26.51A.49.49,0,0,1,26,9.5V6.75a.49.49,0,0,0-.49-.5H21a.49.49,0,0,1-.49-.5v-4a.49.49,0,0,0-.49-.5H16.68a.49.49,0,0,0-.49.5v4a.49.49,0,0,1-.49.5H11.15a.49.49,0,0,0-.49.5V9.5a.5.5,0,0,1-.5.5H5.62A.49.49,0,0,0,5.13,10.5Z"/><path class="cls-3" d="M10,30.25v-9.5a.49.49,0,0,1,.49-.5h6.39a.5.5,0,0,1,.5.5v9.5"/><g class="cls-4"><path class="cls-5" d="M21,21.25h6.39a.49.49,0,0,1,.49.5V27a.49.49,0,0,1-.49.5H21a.49.49,0,0,1-.49-.5V21.75A.49.49,0,0,1,21,21.25Z"/></g><text class="cls-6" transform="translate(3.07 46.78) scale(0.98 1)"><tspan class="cls-7">H</tspan><tspan x="8.94" y="0">ome</tspan></text></g></g></svg>