<svg xmlns="http://www.w3.org/2000/svg" xmlns:xlink="http://www.w3.org/1999/xlink" viewBox="0 0 35 51.27"><defs><style>.cls-1{fill:#fff;}.cls-2{opacity:0.87;}.cls-3,.cls-4,.cls-6{fill:none;stroke:#d6d6d6;}.cls-3{stroke-width:2.5px;}.cls-4{stroke-width:1.5px;}.cls-5{mask:url(#mask);}.cls-6{stroke-width:3px;}.cls-7{font-size:12px;fill:#d6d6d6;font-family:BrandonGrotesque-Regular, Brandon Grotesque;}.cls-8{letter-spacing:-0.02em;}</style><mask id="mask" x="19.32" y="19.75" width="10.37" height="9.25" maskUnits="userSpaceOnUse"><g id="path-3-inside-1"><rect class="cls-1" x="20.82" y="21.25" width="7.37" height="6.25" rx="0.49"/></g></mask></defs><g id="Layer_2" data-name="Layer 2"><g id="Layer_1-2" data-name="Layer 1"><g class="cls-2"><path class="cls-3" d="M5.45,10.5V30.75a.49.49,0,0,0,.49.5H30.77a.49.49,0,0,0,.49-.5V10.5a.49.49,0,0,0-.49-.5H26.84a.49.49,0,0,1-.49-.5V6.75a.5.5,0,0,0-.5-.5H21.31a.49.49,0,0,1-.49-.5v-4a.5.5,0,0,0-.5-.5H17a.5.5,0,0,0-.5.5v4a.49.49,0,0,1-.49.5H11.47a.49.49,0,0,0-.49.5V9.5a.49.49,0,0,1-.49.5H5.94A.49.49,0,0,0,5.45,10.5Z"/><path class="cls-4" d="M10.37,30.25v-9.5a.49.49,0,0,1,.49-.5h6.39a.49.49,0,0,1,.49.5v9.5"/><g class="cls-5"><rect class="cls-6" x="20.82" y="21.25" width="7.37" height="6.25" rx="0.49"/></g><text class="cls-7" transform="translate(3.07 46.78) scale(0.98 1)"><tspan class="cls-8">H</tspan><tspan x="8.94" y="0">ome</tspan></text></g></g></g></svg>