<svg width="80" height="48" viewBox="0 0 80 48" fill="none" xmlns="http://www.w3.org/2000/svg">
<rect width="80" height="48" fill="white"/>
<rect width="6.06768" height="1.13034" rx="0.56517" transform="matrix(0.683228 -0.730205 0.789836 0.613319 19.9182 24.2455)" fill="#DB5342"/>
<rect width="3.76229" height="1.15976" rx="0.579882" transform="matrix(0.660559 0.750774 -0.807617 0.589707 19.074 21.3962)" fill="#DB5342"/>
<path d="M9.03332 22.2685C11.8866 22.2685 14.2659 20.0615 14.2659 17.2593C14.2659 14.4571 11.8866 12.25 9.03332 12.25C6.18002 12.25 3.80074 14.4571 3.80074 17.2593C3.80074 20.0615 6.18002 22.2685 9.03332 22.2685Z" stroke="#DB5342" stroke-width="1.5"/>
<rect x="2" y="25.7778" width="1.79303" height="10.2222" rx="0.896516" fill="#DB5342"/>
<rect x="14.5512" y="25.7778" width="1.79303" height="10.2222" rx="0.896516" fill="#DB5342"/>
<rect x="2" y="27.4815" width="1.7037" height="14.3443" rx="0.851852" transform="rotate(-90 2 27.4815)" fill="#DB5342"/>
<path d="M34.4828 33.62C34.4828 33.82 34.6428 34 34.8628 34H42.4628C42.6628 34 42.8428 33.82 42.8428 33.62V33.08C42.8428 32.88 42.6628 32.7 42.4628 32.7H36.5828C37.8628 31.34 39.1428 29.96 40.4228 28.6C41.8028 27.12 42.9228 25.82 42.9228 24.06C42.9228 22.02 41.4628 20.2 38.6028 20.2C36.2228 20.2 34.8028 22.16 34.8028 22.16C34.6628 22.32 34.7028 22.54 34.8228 22.68L35.2228 23.06C35.3828 23.22 35.6028 23.22 35.7628 23.06C36.3828 22.4 37.3628 21.56 38.6028 21.56C40.6628 21.56 41.4028 22.96 41.4028 24.1C41.4028 25.04 40.7428 26.24 39.3828 27.72C37.7428 29.48 36.1228 31.26 34.4828 33.02V33.62ZM49.2475 33.5C49.1675 33.78 49.3475 34 49.6075 34H50.0675C50.2075 34 50.3875 33.88 50.4275 33.74L54.3275 20.5C54.4075 20.22 54.2475 20 53.9675 20H53.5275C53.3675 20 53.2075 20.12 53.1675 20.26L49.2475 33.5ZM60.6273 32.54C61.1273 33.14 62.2673 34.2 64.4873 34.2C67.1873 34.2 69.1273 32.12 69.1273 29.62C69.1273 27 67.5273 25.42 64.5073 25.42H62.1873V21.74H67.2673C67.4873 21.74 67.6473 21.56 67.6473 21.36V20.78C67.6473 20.58 67.4873 20.4 67.2673 20.4H61.2273C61.0073 20.4 60.8473 20.58 60.8473 20.78V26.06C60.8473 26.38 61.0673 26.76 61.4673 26.76H64.5073C66.6473 26.76 67.6473 28.08 67.6473 29.64C67.6473 31.22 66.4273 32.92 64.5073 32.92C62.7073 32.92 61.7473 31.72 61.5473 31.44C61.3873 31.22 61.2273 31.26 61.0473 31.42C60.8873 31.56 60.7473 31.72 60.5873 31.86C60.3473 32.1 60.3673 32.24 60.6273 32.54Z" fill="#DB5342"/>
</svg>
