<svg xmlns="http://www.w3.org/2000/svg" viewBox="0 0 63.59 55.59"><defs><style>.cls-1,.cls-2{fill:none;stroke:#d6d6d6;}.cls-1{stroke-width:2px;}.cls-2{stroke-width:1.5px;}.cls-3,.cls-4{fill:#d6d6d6;}.cls-4{font-size:11.27px;font-family:BrandonGrotesque-Regular, Brandon Grotesque;}.cls-5{letter-spacing:-0.02em;}.cls-6{letter-spacing:-0.02em;}.cls-7{letter-spacing:0em;}</style></defs><g id="Layer_2" data-name="Layer 2"><g id="Layer_1-2" data-name="Layer 1"><ellipse class="cls-1" cx="31.64" cy="18.5" rx="16.97" ry="17.5"/><ellipse class="cls-2" cx="27.4" cy="13.03" rx="4.51" ry="4.65"/><path class="cls-2" d="M32.7,29.44V21.78a1.07,1.07,0,0,0-1.06-1.09H23.15a1.08,1.08,0,0,0-1.06,1.09v7.66"/><path class="cls-3" d="M38.49,14.62V7.07a.58.58,0,0,1,.57-.6h0a.59.59,0,0,1,.58.6v7.55a.59.59,0,0,1-.58.6h0A.58.58,0,0,1,38.49,14.62Z"/><path class="cls-3" d="M35.41,10.13h7.31a.6.6,0,0,1,.59.61h0a.6.6,0,0,1-.59.61H35.41a.6.6,0,0,1-.59-.61h0A.6.6,0,0,1,35.41,10.13Z"/><text class="cls-4" transform="translate(7.09 51.38) scale(1.06 1)"><tspan class="cls-5">M</tspan><tspan x="9.53" y="0">y </tspan><tspan class="cls-6" x="17.28" y="0">P</tspan><tspan class="cls-7" x="23.75" y="0">r</tspan><tspan x="27.48" y="0">ofile</tspan></text></g></g></svg>