<svg xmlns="http://www.w3.org/2000/svg" viewBox="0 0 63.59 55.59"><defs><style>.cls-1,.cls-2{fill:none;stroke:#db5342;}.cls-1{stroke-width:2px;}.cls-2{stroke-width:1.5px;}.cls-3,.cls-4{fill:#db5342;}.cls-4{font-size:11.27px;font-family:BrandonGrotesque-Regular, Brandon Grotesque;}.cls-5{letter-spacing:-0.02em;}.cls-6{letter-spacing:-0.02em;}.cls-7{letter-spacing:0em;}</style></defs><g id="Layer_2" data-name="Layer 2"><g id="Layer_1-2" data-name="Layer 1"><ellipse class="cls-1" cx="29.31" cy="18.5" rx="16.97" ry="17.5"/><circle class="cls-2" cx="25.31" cy="13.5" r="4.25"/><path class="cls-2" d="M30.31,28.5v-7a1,1,0,0,0-1-1h-8a1,1,0,0,0-1,1v7"/><path class="cls-3" d="M35.77,15V8.05a.54.54,0,0,1,.54-.55h0a.55.55,0,0,1,.55.55V15a.55.55,0,0,1-.55.55h0A.54.54,0,0,1,35.77,15Z"/><path class="cls-3" d="M33.09,10.13h7.3a.6.6,0,0,1,.59.61h0a.6.6,0,0,1-.59.61h-7.3a.6.6,0,0,1-.6-.61h0A.6.6,0,0,1,33.09,10.13Z"/><text class="cls-4" transform="translate(7.09 51.38) scale(1.06 1)"><tspan class="cls-5">M</tspan><tspan x="9.53" y="0">y </tspan><tspan class="cls-6" x="17.28" y="0">P</tspan><tspan class="cls-7" x="23.75" y="0">r</tspan><tspan x="27.48" y="0">ofile</tspan></text></g></g></svg>