<svg xmlns="http://www.w3.org/2000/svg" viewBox="0 0 63.59 56.12"><defs><style>.cls-1,.cls-3{fill:none;stroke:#d6d6d6;}.cls-1{stroke-width:2.5px;}.cls-2,.cls-4{fill:#d6d6d6;}.cls-3{stroke-width:1.5px;}.cls-4{font-size:11.75px;font-family:BrandonGrotesque-Regular, Brandon Grotesque;}.cls-5{letter-spacing:-0.02em;}</style></defs><g id="Layer_2" data-name="Layer 2"><g id="Layer_1-2" data-name="Layer 1"><path class="cls-1" d="M47.7,34.13h0a6.74,6.74,0,0,1-2.06-6.6l.23-1,1.64-7.34.1-.31C50,11.45,45.73,3.45,38.37,1.62h0a12.88,12.88,0,0,0-15.54,9.94l-.51,2.21-1.61,7a6.31,6.31,0,0,1-.4,1.18h0a6.07,6.07,0,0,1-2.76,3l-2.21,1.15"/><polygon class="cls-2" points="14.47 24.62 48.59 33.09 48.04 35.47 13.93 27 14.47 24.62"/><path class="cls-3" d="M34.17,34.23a2.52,2.52,0,0,1-1.49,1.66,4.78,4.78,0,0,1-3.08.2,4.91,4.91,0,0,1-2.66-1.63,2.59,2.59,0,0,1-.62-2.18,2.47,2.47,0,0,1,1.5-1.66,4.71,4.71,0,0,1,3.08-.2A4.92,4.92,0,0,1,33.56,32,2.6,2.6,0,0,1,34.17,34.23Z"/><text class="cls-4" transform="translate(1.41 51.73) scale(1.02 1)"><tspan class="cls-5">N</tspan><tspan x="8.87" y="0">otifications</tspan></text></g></g></svg>