<svg xmlns="http://www.w3.org/2000/svg" viewBox="0 0 63.59 56.12"><defs><style>.cls-1,.cls-3{fill:none;stroke:#db5342;}.cls-1{stroke-width:2.5px;}.cls-2,.cls-4{fill:#db5342;}.cls-3{stroke-width:1.5px;}.cls-4{font-size:11.75px;font-family:BrandonGrotesque-Regular, Brandon Grotesque;}.cls-5{letter-spacing:-0.02em;}</style></defs><g id="Layer_2" data-name="Layer 2"><g id="Layer_1-2" data-name="Layer 1"><path class="cls-1" d="M45.37,34.13h0a6.73,6.73,0,0,1-2-6.6l.23-1,1.63-7.34.1-.31C47.68,11.45,43.4,3.45,36,1.62h0A12.88,12.88,0,0,0,20.5,11.56L20,13.77l-1.61,7A6.28,6.28,0,0,1,18,22h0a6.14,6.14,0,0,1-2.77,3L13,26.09"/><polygon class="cls-2" points="12.14 24.62 46.26 33.09 45.71 35.47 11.6 27 12.14 24.62"/><path class="cls-3" d="M31.84,34.23a2.47,2.47,0,0,1-1.49,1.66,4.78,4.78,0,0,1-3.08.2,5,5,0,0,1-2.66-1.63A2.59,2.59,0,0,1,24,32.28a2.47,2.47,0,0,1,1.5-1.66,4.71,4.71,0,0,1,3.08-.2A4.92,4.92,0,0,1,31.23,32,2.57,2.57,0,0,1,31.84,34.23Z"/><text class="cls-4" transform="translate(1.41 51.73) scale(1.02 1)"><tspan class="cls-5">N</tspan><tspan x="8.87" y="0">otifications</tspan></text></g></g></svg>