<svg width="80" height="48" viewBox="0 0 80 48" fill="none" xmlns="http://www.w3.org/2000/svg">
<rect width="80" height="48" fill="white"/>
<path d="M15 27.066C14.5029 27.066 14.1 26.663 14.1 26.166V14.7792C14.1 14.2821 14.5029 13.8792 15 13.8792V13.8792C15.4971 13.8792 15.9 14.2821 15.9 14.7792V26.166C15.9 26.663 15.4971 27.066 15 27.066V27.066Z" fill="#DB5342"/>
<path d="M14.3462 13.6459C14.7452 13.2892 15.3455 13.3341 15.6869 13.7462L19.2932 18.0986C19.6347 18.5108 19.5881 19.134 19.1891 19.4907V19.4907C18.7901 19.8474 18.1898 19.8025 17.8483 19.3904L14.242 15.0379C13.9006 14.6258 13.9472 14.0026 14.3462 13.6459V13.6459Z" fill="#DB5342"/>
<rect width="7.50925" height="2.00209" rx="1.00104" transform="matrix(0.638017 -0.770023 0.74552 0.666483 10.0061 18.8446)" fill="#DB5342"/>
<rect x="6" y="21.7912" width="4.5" height="1.75824" rx="0.879121" fill="#DB5342"/>
<rect x="19.5" y="21.7912" width="4.5" height="1.75824" rx="0.879121" fill="#DB5342"/>
<rect x="6" y="35.8571" width="14.0659" height="1.8" rx="0.9" transform="rotate(-90 6 35.8571)" fill="#DB5342"/>
<rect x="22.2" y="35.8571" width="14.0659" height="1.8" rx="0.9" transform="rotate(-90 22.2 35.8571)" fill="#DB5342"/>
<rect x="6" y="34.0989" width="18" height="1.75824" rx="0.879121" fill="#DB5342"/>
<path d="M36.6702 32.58C36.9302 32.82 38.5302 34.2 40.8902 34.2C43.2302 34.2 45.2102 32.68 45.2102 30.6C45.2102 28.28 43.4702 27.26 40.7702 26.16C39.0902 25.46 38.0702 24.68 38.0702 23.34C38.0702 22.5 38.7102 21.14 40.8302 21.14C42.0502 21.14 43.3102 21.98 43.4502 22.06C43.7702 22.24 43.9702 22.16 44.1502 21.88C44.2302 21.76 44.3102 21.62 44.3902 21.5C44.6302 21.12 44.3902 20.88 44.2702 20.82C44.2702 20.82 42.8102 19.8 40.8502 19.8C37.6702 19.8 36.5902 22 36.5902 23.36C36.5902 25.64 37.9102 26.54 40.1102 27.5C42.4102 28.46 43.6102 29.28 43.6102 30.66C43.6102 31.84 42.5502 32.86 40.9302 32.86C39.1502 32.86 37.6902 31.46 37.5502 31.34C37.2702 31.1 37.0502 31.26 36.8502 31.52C36.7502 31.64 36.6502 31.78 36.5502 31.9C36.3102 32.28 36.5102 32.44 36.6702 32.58ZM47.358 33.62C47.358 33.82 47.538 34 47.738 34H48.358C48.558 34 48.738 33.82 48.738 33.62V28.26C48.738 28.26 49.798 27.14 51.318 27.14C52.438 27.14 53.118 27.88 53.118 29.4V33.62C53.118 33.82 53.298 34 53.498 34H54.138C54.338 34 54.518 33.82 54.518 33.62V29.4C54.518 27.06 53.398 25.8 51.418 25.8C49.798 25.8 48.738 26.86 48.738 26.86V20.38C48.738 20.18 48.558 20 48.358 20H47.738C47.538 20 47.358 20.18 47.358 20.38V33.62ZM56.6798 31.58C56.6798 33.18 57.7398 34.2 59.1398 34.2C60.3798 34.2 61.1998 33.58 61.6198 33.16L61.7798 33.7C61.8398 33.88 61.8998 34 62.1198 34H62.4998C62.6998 34 62.8798 33.82 62.8798 33.62V29.18C62.8798 26.84 62.3798 25.8 60.3398 25.8C58.8398 25.8 57.6798 26.26 57.5598 26.32C57.3798 26.4 57.2598 26.52 57.3398 26.76L57.4998 27.26C57.5598 27.44 57.6798 27.54 57.8798 27.46C58.2398 27.32 59.1798 27.02 60.2798 27.02C61.4198 27.02 61.5998 27.7 61.5798 29.18C61.5798 29.18 60.7398 28.92 59.8798 28.92C57.8198 28.92 56.6798 30.06 56.6798 31.58ZM57.9598 31.58C57.9598 30.54 58.7598 29.98 59.8798 29.98C60.7598 29.98 61.3198 30.16 61.5598 30.3V31.88C61.2198 32.38 60.3598 33 59.3598 33C58.4998 33 57.9598 32.38 57.9598 31.58ZM65.6583 33.62C65.6583 33.82 65.8383 34 66.0383 34H66.6583C66.8583 34 67.0383 33.82 67.0383 33.62V28.28C67.0383 28.28 67.6983 27.16 69.2183 27.16C69.5183 27.16 69.8183 27.24 69.9983 27.32C70.1983 27.4 70.3783 27.4 70.4783 27.14L70.7183 26.46C70.9183 25.9 69.9183 25.8 69.3183 25.8C67.6583 25.8 66.9183 26.86 66.9183 26.86L66.7583 26.28C66.7183 26.1 66.5783 26 66.4183 26H66.0383C65.8383 26 65.6583 26.18 65.6583 26.38V33.62ZM71.6994 30C71.6994 32.3 73.1994 34.2 75.6194 34.2C76.9994 34.2 78.0794 33.66 78.5594 33.28C78.8594 33.06 78.7794 32.94 78.6394 32.76C78.5194 32.6 78.4194 32.46 78.2994 32.3C78.1394 32.08 78.0194 32.18 77.7394 32.34C77.2794 32.62 76.5994 32.94 75.7594 32.94C74.3394 32.94 73.1594 31.68 73.0794 30.34H78.8394C79.0194 30.34 79.1794 30.2 79.1994 30C79.2194 29.86 79.2394 29.6 79.2394 29.46C79.2394 27.36 77.7194 25.8 75.6194 25.8C73.1994 25.8 71.6994 27.74 71.6994 30ZM73.0994 29.22C73.2394 27.98 74.2794 27.02 75.6194 27.02C76.8394 27.02 77.7994 28.06 77.8594 29.22H73.0994Z" fill="#DB5342"/>
</svg>
