<svg width="80" height="48" viewBox="0 0 80 48" fill="none" xmlns="http://www.w3.org/2000/svg">
<rect width="80" height="48" fill="white"/>
<rect width="6.06768" height="1.13034" rx="0.56517" transform="matrix(0.683228 -0.730205 0.789836 0.613319 19.9182 24.2455)" fill="#DB5342"/>
<rect width="3.76229" height="1.15976" rx="0.579882" transform="matrix(0.660559 0.750774 -0.807617 0.589707 19.074 21.3962)" fill="#DB5342"/>
<path d="M9.03332 22.2685C11.8866 22.2685 14.2659 20.0615 14.2659 17.2593C14.2659 14.4571 11.8866 12.25 9.03332 12.25C6.18002 12.25 3.80074 14.4571 3.80074 17.2593C3.80074 20.0615 6.18002 22.2685 9.03332 22.2685Z" stroke="#DB5342" stroke-width="1.5"/>
<rect x="2" y="25.7778" width="1.79303" height="10.2222" rx="0.896516" fill="#DB5342"/>
<rect x="14.5512" y="25.7778" width="1.79303" height="10.2222" rx="0.896516" fill="#DB5342"/>
<rect x="2" y="27.4815" width="1.7037" height="14.3443" rx="0.851852" transform="rotate(-90 2 27.4815)" fill="#DB5342"/>
<path d="M34.4461 32.42C34.8861 32.92 36.0061 34.2 38.4661 34.2C41.2261 34.2 42.9061 32.5 42.9061 30.32C42.9061 28.6 41.4461 27.48 40.5061 27.08V27.02C41.4061 26.6 42.5661 25.4 42.5661 23.86C42.5661 21.62 40.8661 20.2 38.4461 20.2C36.2661 20.2 34.8261 21.96 34.8261 21.96C34.6861 22.1 34.6661 22.34 34.8261 22.48L35.3061 22.86C35.5061 23.04 35.7061 22.96 35.8261 22.82C36.2661 22.32 37.0861 21.52 38.4461 21.52C39.8661 21.52 41.0661 22.48 41.0661 24.06C41.0661 25.38 40.0261 26.48 37.8861 26.48H36.7861C36.4661 26.48 36.3661 26.6 36.3661 26.92V27.4C36.3661 27.72 36.5261 27.84 36.7461 27.84H37.8661C40.3461 27.84 41.4061 29.1 41.4061 30.46C41.4061 32.04 40.0461 32.96 38.5261 32.96C36.8061 32.96 35.7261 31.8 35.5461 31.58C35.3861 31.36 35.2261 31.32 35.0061 31.48L34.4661 31.94C34.3061 32.06 34.3261 32.28 34.4461 32.42ZM49.3842 33.5C49.3042 33.78 49.4842 34 49.7442 34H50.2042C50.3442 34 50.5242 33.88 50.5642 33.74L54.4642 20.5C54.5442 20.22 54.3842 20 54.1042 20H53.6642C53.5042 20 53.3442 20.12 53.3042 20.26L49.3842 33.5ZM60.7641 32.54C61.2641 33.14 62.4041 34.2 64.6241 34.2C67.3241 34.2 69.2641 32.12 69.2641 29.62C69.2641 27 67.6641 25.42 64.6441 25.42H62.3241V21.74H67.4041C67.6241 21.74 67.7841 21.56 67.7841 21.36V20.78C67.7841 20.58 67.6241 20.4 67.4041 20.4H61.3641C61.1441 20.4 60.9841 20.58 60.9841 20.78V26.06C60.9841 26.38 61.2041 26.76 61.6041 26.76H64.6441C66.7841 26.76 67.7841 28.08 67.7841 29.64C67.7841 31.22 66.5641 32.92 64.6441 32.92C62.8441 32.92 61.8841 31.72 61.6841 31.44C61.5241 31.22 61.3641 31.26 61.1841 31.42C61.0241 31.56 60.8841 31.72 60.7241 31.86C60.4841 32.1 60.5041 32.24 60.7641 32.54Z" fill="#DB5342"/>
</svg>
